# xmcd
#
# Track frame offsets:
#	150
#	14668
#	31436
#	45893
#	62795
#	84803
#	99358
#	115487
#	126837
#	137087
#	150255
#	166133
#
# Disc length: 2480 seconds
#
# Revision: 1
# Processed by: cddbd v1.5.2PL0 Copyright (c) Steve Scherf et al.
# Submitted via: audiograbber 1.83.01
#
DISCID=8c09ae0c
DTITLE=Mike Lane - Mike Lane Country Volume 1
DYEAR=1900
DGENRE=Country
TTITLE0=Devil Woman
TTITLE1=My Shoes Keep Walking Back To You
TTITLE2=Blanket On The Ground
TTITLE3=Blue Eyes Crying In The Rain
TTITLE4=Cheating Heart
TTITLE5=King Of The Road
TTITLE6=Help Me Make It Through The Night
TTITLE7=Your My Best Friend
TTITLE8=Six Days On The Road
TTITLE9=Okie From Muskogie
TTITLE10=Cowboy Rides Away
TTITLE11=You Are My Life
EXTD=
EXTT0=
EXTT1=
EXTT2=
EXTT3=
EXTT4=
EXTT5=
EXTT6=
EXTT7=
EXTT8=
EXTT9=
EXTT10=
EXTT11=
PLAYORDER=
